<svg xmlns="http://www.w3.org/2000/svg" width="21.499" height="25.798" viewBox="0 0 21.499 25.798">
  <path id="Path_27685" data-name="Path 27685" d="M19.2,13.437a5.907,5.907,0,0,1,3.267-5.281A6.73,6.73,0,0,0,18.127,6.45a6.586,6.586,0,0,0-2.519.558,6,6,0,0,1-2.319.517,6,6,0,0,1-2.319-.517A6.586,6.586,0,0,0,8.451,6.45C7.79,6.45,2,6.661,2,13.975,2,19.956,6.082,25.8,8.451,25.8a7.133,7.133,0,0,0,3.021-.638,4.41,4.41,0,0,1,1.817-.436,4.4,4.4,0,0,1,1.817.436,7.141,7.141,0,0,0,3.021.638c1.66,0,4.023-2.871,5.372-6.645A5.8,5.8,0,0,1,19.2,13.437ZM18.127,0a6.518,6.518,0,0,0-5.375,6.45A6.518,6.518,0,0,0,18.127,0Z" transform="translate(-2)" fill="#393939"/>
</svg>
