<svg id="Layer_1" data-name="Layer 1" xmlns="http://www.w3.org/2000/svg" viewBox="0 0 512 512"><defs><style>.cls-1{fill:#fff;}</style></defs><path class="cls-1" d="M23.81,343.13c1.79-.13,3.59-.38,5.38-.38q180.12,0,360.22,0h6V348q0,37.2,0,74.4c0,24.65-14.95,39.57-39.54,39.58H63.72c-21.37,0-33.84-9.55-39.4-30.13-.07-.27-.34-.48-.51-.72Zm77.29,59c-10,0-19.95-.05-29.93,0-8.49.06-14.58,5.66-14.69,13.39-.11,7.91,6.05,13.78,14.75,13.8q29.7.09,59.4,0c8.5,0,14.58-5.67,14.71-13.4.13-7.88-6.08-13.73-14.76-13.79C120.75,402.07,110.93,402.11,101.1,402.11Z"/><path class="cls-1" d="M23.81,254.2c1.8-.11,3.6-.32,5.4-.32q180.08,0,360.16,0h5.71v61.67h-365c-2.1,0-4.2.24-6.3.37Z"/><path class="cls-1" d="M23.81,222.44c.58-1.67,1.21-3.33,1.74-5a36,36,0,0,1,32.27-25.09c1.51-.08,3-.13,4.53-.13q147.2,0,294.4,0c15.65,0,27.56,6.14,34.73,20.18,2.12,4.16,2.94,9,4.62,14.34H29.66c-1.95,0-3.9.19-5.85.29Z"/><path class="cls-1" d="M422.59,327.53v-6c0-30.55.1-61.09,0-91.64-.13-31.24-19.54-56.35-48.95-63.2A74.05,74.05,0,0,0,357,165.12q-133.37-.15-266.74-.07c-6.78,0-7,0-8-6.81-1.08-7.59-2.84-15.34-2.24-22.85,1.34-16.58,13.7-28.91,30-31.77q102.87-18,205.72-36.07,49.77-8.7,99.56-17.22c15.19-2.6,33.22,10.39,36.71,27.32,4.15,20.11,7.39,40.4,11,60.63,8,45.5,15.52,91.12,24.3,136.49,5,25.64-11,44.63-31.73,47.06-6.14.72-12.2,2.1-18.3,3.16C432.66,325.8,428.06,326.59,422.59,327.53Z"/></svg>