<svg id="Layer_1" data-name="Layer 1" xmlns="http://www.w3.org/2000/svg" viewBox="0 0 512 512"><defs><style>.cls-1{fill:#fff;}</style></defs><path class="cls-1" d="M23.05,90.7c8.06,6.91,15.39,13.17,22.69,19.46Q114.89,169.73,184,229.27c24.62,21.18,53.14,21,77.56-.13q77.27-66.87,154.65-133.59c1.7-1.47,3.45-2.89,6.22-5.21v6.14c0,46.8,0,93.6-.11,140.41,0,4.13,1.14,6.34,4.95,8.34,43.4,22.71,68.12,72.06,60.44,120.11-7.86,49.25-46.07,88.37-94.59,96.87-63.35,11.1-123.71-30.63-135-93.5-.72-4-2.33-4.49-5.77-4.49q-91,.13-182,.06c-22.71,0-40.39-12.79-45.83-33.34A47,47,0,0,1,23,319.15Q22.82,206.58,22.87,94C22.87,93.3,22.94,92.61,23.05,90.7Zm432.67,257a83.23,83.23,0,1,0-83.43,83.12A82.93,82.93,0,0,0,455.72,347.74Z"/><path class="cls-1" d="M407.18,59.61c-8.68,7.5-17,14.73-25.37,21.93Q310.16,143.32,238.5,205.09c-11.23,9.68-20.21,9.78-31.37.17Q123.63,133.35,40.2,61.35c-.52-.45-1.11-.82-2.07-1.54A43.3,43.3,0,0,1,65,48.13C66.75,48,68.5,48,70.23,48q152.59,0,305.19,0C387.32,48,397.79,51.31,407.18,59.61Z"/><path class="cls-1" d="M364.08,349.3c13.05-13.07,25.41-25.67,38-38,9.57-9.37,24.74-5.41,28.08,7.17,1.53,5.78.36,11.18-3.84,15.42-16.8,17-33.65,33.95-50.71,50.7-6.65,6.53-16.29,6.42-22.94-.06q-17.13-16.67-33.8-33.81a16.55,16.55,0,0,1,23.49-23.31C349.61,334.32,356.51,341.62,364.08,349.3Z"/></svg>