<svg id="Layer_1" data-name="Layer 1" xmlns="http://www.w3.org/2000/svg" viewBox="0 0 512 512"><defs><style>.cls-1{fill:#fff;}</style></defs><path class="cls-1" d="M254.64,14a52.56,52.56,0,0,1,32.89,10.85c9.66,7.24,19.39,14.39,29,21.73A54.48,54.48,0,0,0,349.05,58.1c12.4.36,24.8,1.12,37.17,2.1,23,1.81,40.72,17.34,46.27,40.26,3.08,12.71,6,25.45,9,38.18a48.86,48.86,0,0,0,14.42,24.74c9,8.53,18.14,17,27.15,25.5,19,18.05,23,40.65,11.29,64.05-4.55,9.12-8.73,18.47-13.91,27.22-8.57,14.49-9.41,29.77-6.78,45.83,1.56,9.56,2.61,19.21,3.56,28.85,2.21,22.29-9.11,42.41-29.46,51.88-11.85,5.51-23.95,10.51-36,15.53a53.15,53.15,0,0,0-25,20.93c-6.4,10-12.95,20-19.52,29.89-14.4,21.78-36.22,29.61-61.14,22-11.7-3.56-23.43-7-35.12-10.55-10.6-3.22-21.09-2.82-31.61.42-12.49,3.84-25,7.78-37.57,11.21A50,50,0,0,1,147,476.27c-7.4-10.58-14.39-21.46-21.3-32.37A54.27,54.27,0,0,0,99.64,422c-11.16-4.53-22.2-9.38-33.24-14.21-22.86-10-34.64-31.34-31.25-56.1,1.63-12,3-24,4.32-35.95a52.22,52.22,0,0,0-5.55-30.63c-5.57-10.69-11-21.49-16.34-32.28C5.92,229.46,10,206.75,29,188.8c8.66-8.17,17.32-16.34,26.08-24.41a53.31,53.31,0,0,0,16.14-28.31q4-17.66,8.21-35.23c5.87-24.59,24.83-39.94,50-40.89,12.74-.48,25.48-1.25,38.2-2.16a49.73,49.73,0,0,0,26.71-10.37c9.77-7.37,19.61-14.65,29.37-22C233.24,18.22,243.78,14,254.64,14ZM422.91,256.14C423.2,164.3,349,89.82,256.41,89.05c-91.66-.76-167,74.38-167.32,166.78-.27,91.85,73.92,166.31,166.5,167.11C347.23,423.73,422.62,348.58,422.91,256.14Z"/><path class="cls-1" d="M406.58,256.23c-.33,83.31-68,150.8-150.82,150.38C172.4,406.18,105,338.56,105.42,255.74c.42-83.38,68-150.78,150.83-150.36C339.62,105.8,406.92,173.33,406.58,256.23ZM235,268.31C224.73,258,213.9,247,202.89,236.09c-9.34-9.21-23.16-9.39-32-.66-9.14,9-9.08,22.75.41,32.34Q195.5,292.25,220,316.46c9.58,9.47,22.88,9.6,32.33.11Q296.74,272,340.89,227c9.31-9.47,9.28-23.13.4-32s-22.51-8.7-32,.44c-4.53,4.36-8.8,9-13.3,13.38C275.81,228.57,255.59,248.24,235,268.31Z"/></svg>