<svg xmlns="http://www.w3.org/2000/svg" xmlns:xlink="http://www.w3.org/1999/xlink" width="24" height="24" viewBox="0 0 24 24">
  <defs>
    <clipPath id="clip-path">
      <rect id="Rectangle_13519" data-name="Rectangle 13519" width="24" height="24" transform="translate(1283 161)" fill="#fff"/>
    </clipPath>
  </defs>
  <g id="Mask_Group_8" data-name="Mask Group 8" transform="translate(-1283 -161)" clip-path="url(#clip-path)">
    <g id="question-mark_2910772" transform="translate(1283.596 161.596)">
      <path id="Path_28769" data-name="Path 28769" d="M16.261,22.438a6.177,6.177,0,1,1,6.177-6.177A6.184,6.184,0,0,1,16.261,22.438Zm0-11.4a5.227,5.227,0,1,0,5.227,5.227A5.233,5.233,0,0,0,16.261,11.034Z" transform="translate(0.371 0.371)" fill="#3390f4"/>
      <path id="Path_28770" data-name="Path 28770" d="M16.126,18.569a.475.475,0,0,1-.475-.475v-.25a3,3,0,0,1,1.317-2.4A1.426,1.426,0,1,0,14.7,14.293a.475.475,0,0,1-.95,0,2.376,2.376,0,1,1,3.78,1.918,2.085,2.085,0,0,0-.928,1.634v.25a.475.475,0,0,1-.475.475Z" transform="translate(0.505 0.438)" fill="#3390f4"/>
      <path id="Path_28771" data-name="Path 28771" d="M16.059,20.2a.487.487,0,0,1-.475-.475.386.386,0,0,1,.038-.181.338.338,0,0,1,.1-.152.329.329,0,0,1,.152-.1.472.472,0,0,1,.513.1.446.446,0,0,1,.143.333.405.405,0,0,1-.038.18.333.333,0,0,1-.1.152.443.443,0,0,1-.333.144Z" transform="translate(0.573 0.708)" fill="#3390f4"/>
      <path id="Path_28772" data-name="Path 28772" d="M9.028,19.856H2.376A2.379,2.379,0,0,1,0,17.481V5.126A2.379,2.379,0,0,1,2.376,2.75h1.9a.475.475,0,1,1,0,.95h-1.9A1.427,1.427,0,0,0,.95,5.126V17.481a1.427,1.427,0,0,0,1.426,1.426H9.028a.475.475,0,1,1,0,.95Z" transform="translate(0 0.101)" fill="#3390f4"/>
      <path id="Path_28773" data-name="Path 28773" d="M10.794,5.7h-5.7A1.427,1.427,0,0,1,3.667,4.277v-1.9A.475.475,0,0,1,4.142,1.9H5.615a2.376,2.376,0,0,1,4.657,0h1.473a.475.475,0,0,1,.475.475v1.9A1.427,1.427,0,0,1,10.794,5.7ZM4.617,2.851V4.277a.476.476,0,0,0,.475.475h5.7a.476.476,0,0,0,.475-.475V2.851H9.844a.475.475,0,0,1-.475-.475,1.426,1.426,0,1,0-2.851,0,.475.475,0,0,1-.475.475Z" transform="translate(0.135)" fill="#3390f4"/>
      <path id="Path_28774" data-name="Path 28774" d="M12.729,8.284h-9.5a.475.475,0,1,1,0-.95h9.5a.475.475,0,1,1,0,.95Z" transform="translate(0.101 0.27)" fill="#3390f4"/>
      <path id="Path_28775" data-name="Path 28775" d="M9.878,11.034H3.225a.475.475,0,1,1,0-.95H9.878a.475.475,0,1,1,0,.95Z" transform="translate(0.101 0.371)" fill="#3390f4"/>
      <path id="Path_28776" data-name="Path 28776" d="M7.977,13.784H3.225a.475.475,0,1,1,0-.95H7.977a.475.475,0,1,1,0,.95Z" transform="translate(0.101 0.472)" fill="#3390f4"/>
      <path id="Path_28777" data-name="Path 28777" d="M15.277,8.452a.475.475,0,0,1-.475-.475V5.126A1.427,1.427,0,0,0,13.376,3.7h-1.9a.475.475,0,1,1,0-.95h1.9a2.379,2.379,0,0,1,2.376,2.376V7.977A.475.475,0,0,1,15.277,8.452Z" transform="translate(0.404 0.101)" fill="#3390f4"/>
    </g>
  </g>
</svg>
