<svg xmlns="http://www.w3.org/2000/svg" xmlns:xlink="http://www.w3.org/1999/xlink" width="22" height="22" viewBox="0 0 22 22">
  <defs>
    <clipPath id="clip-path">
      <rect id="Rectangle_13517" data-name="Rectangle 13517" width="22" height="22" transform="translate(542 162)" fill="#fff"/>
    </clipPath>
  </defs>
  <g id="Mask_Group_6" data-name="Mask Group 6" transform="translate(-542 -162)" clip-path="url(#clip-path)">
    <g id="g2372" transform="translate(541.828 162.043)">
      <path id="rect31126" d="M2.984-.043A2.816,2.816,0,0,0,.172,2.769V19.145a2.816,2.816,0,0,0,2.812,2.812H19.36a2.816,2.816,0,0,0,2.812-2.812V2.769A2.816,2.816,0,0,0,19.36-.043Zm0,.945H19.36a1.852,1.852,0,0,1,1.867,1.867V19.145a1.852,1.852,0,0,1-1.867,1.867H2.984a1.852,1.852,0,0,1-1.867-1.867V2.769A1.852,1.852,0,0,1,2.984.9Z" fill="#3390f4" fill-rule="evenodd"/>
      <path id="path1282" d="M7.662,5.806A2.809,2.809,0,0,0,5.894,10.8a5.164,5.164,0,0,0-3.223,3.562,1.361,1.361,0,0,0,.322,1.251,1.576,1.576,0,0,0,1.162.5h7.018a1.576,1.576,0,0,0,1.162-.5,1.361,1.361,0,0,0,.322-1.251A5.164,5.164,0,0,0,9.431,10.8,2.809,2.809,0,0,0,7.662,5.806Zm0,.945A1.867,1.867,0,1,1,5.8,8.618,1.86,1.86,0,0,1,7.662,6.751Zm0,4.679a4.2,4.2,0,0,1,4.076,3.165.366.366,0,0,1-.1.376.65.65,0,0,1-.468.193H4.154a.65.65,0,0,1-.468-.193.366.366,0,0,1-.1-.376A4.2,4.2,0,0,1,7.663,11.43Z" fill="#3390f4" fill-rule="evenodd"/>
      <path id="path31193" d="M14.681,13.993a.473.473,0,1,0,0,.945H19.36a.473.473,0,1,0,0-.945Z" fill="#3390f4" fill-rule="evenodd"/>
      <path id="path31193-3" d="M19.36,10.484H13.512a.473.473,0,1,0,0,.945H19.36a.473.473,0,1,0,0-.945Z" fill="#3390f4" fill-rule="evenodd"/>
      <path id="path31193-3-5" d="M12.342,6.975a.473.473,0,0,0,0,.945H19.36a.473.473,0,0,0,0-.945Z" fill="#3390f4" fill-rule="evenodd"/>
    </g>
  </g>
</svg>
