<svg xmlns="http://www.w3.org/2000/svg" xmlns:xlink="http://www.w3.org/1999/xlink" width="22" height="22" viewBox="0 0 22 22">
  <defs>
    <clipPath id="clip-path">
      <rect id="Rectangle_13518" data-name="Rectangle 13518" width="22" height="22" transform="translate(913 162)" fill="#fff"/>
    </clipPath>
  </defs>
  <g id="Mask_Group_7" data-name="Mask Group 7" transform="translate(-913 -162)" clip-path="url(#clip-path)">
    <g id="history_7755999" transform="translate(909.526 159.105)">
      <path id="Path_28764" data-name="Path 28764" d="M8.105,8.684h6.947a.579.579,0,0,0,0-1.158H8.105a.579.579,0,0,0,0,1.158Z" fill="#3390f4"/>
      <path id="Path_28765" data-name="Path 28765" d="M8.105,12.158h6.947a.579.579,0,0,0,0-1.158H8.105a.579.579,0,0,0,0,1.158Z" fill="#3390f4"/>
      <path id="Path_28766" data-name="Path 28766" d="M12.737,14.474H8.105a.579.579,0,1,0,0,1.158h4.632a.579.579,0,1,0,0-1.158Z" fill="#3390f4"/>
      <path id="Path_28767" data-name="Path 28767" d="M19.684,14.474a5.028,5.028,0,0,0-.579.059V11h4.053a.579.579,0,0,0,.579-.579V5.789a2.9,2.9,0,0,0-2.895-2.895H6.947A2.9,2.9,0,0,0,4.053,5.789V24.316a.579.579,0,0,0,.579.579H19.684a5.211,5.211,0,1,0,0-10.421Zm2.895-8.684V9.842H19.105V5.789a1.737,1.737,0,1,1,3.474,0ZM5.211,23.737V5.789A1.737,1.737,0,0,1,6.947,4.053H18.541a2.861,2.861,0,0,0-.594,1.737v9a5.165,5.165,0,0,0-1.5,8.944Zm14.474,0a4.053,4.053,0,1,1,4.053-4.053A4.053,4.053,0,0,1,19.684,23.737Z" fill="#3390f4"/>
      <path id="Path_28768" data-name="Path 28768" d="M20.263,19.445V17.368a.579.579,0,0,0-1.158,0v2.316a.579.579,0,0,0,.169.41l1.158,1.158a.58.58,0,1,0,.82-.82Z" fill="#3390f4"/>
    </g>
  </g>
</svg>
