<svg xmlns="http://www.w3.org/2000/svg" xmlns:xlink="http://www.w3.org/1999/xlink" width="20" height="20" viewBox="0 0 20 20">
  <defs>
    <clipPath id="clip-path">
      <rect id="Rectangle_13490" data-name="Rectangle 13490" width="20" height="20" transform="translate(61 278)" fill="#fff"/>
    </clipPath>
  </defs>
  <g id="Mask_Group_4" data-name="Mask Group 4" transform="translate(-61 -278)" clip-path="url(#clip-path)">
    <path id="logout" d="M4,12a1,1,0,0,0,1,1h7.59l-2.3,2.29a1,1,0,1,0,1.42,1.42l4-4a1.034,1.034,0,0,0,0-1.42l-4-4a1,1,0,0,0-1.42,1.42L12.59,11H5A1,1,0,0,0,4,12ZM17,2H7A3,3,0,0,0,4,5V8A1,1,0,0,0,6,8V5A1,1,0,0,1,7,4H17a1,1,0,0,1,1,1V19a1,1,0,0,1-1,1H7a1,1,0,0,1-1-1V16a1,1,0,0,0-2,0v3a3,3,0,0,0,3,3H17a3,3,0,0,0,3-3V5A3,3,0,0,0,17,2Z" transform="translate(59 276)" fill="#78899e" stroke="#f7fafc" stroke-width="0.4"/>
  </g>
</svg>
