<svg id="Layer_1" data-name="Layer 1" xmlns="http://www.w3.org/2000/svg" viewBox="0 0 512 512"><defs><style>.cls-1{fill:#fff;}</style></defs><path class="cls-1" d="M39.39,231.44l41.09,34.34Q147.76,322.09,215,378.39c19.29,16.11,49.42,15.5,69.53-1.3Q369,306.53,453.49,235.94c1.35-1.13,2.74-2.2,5.09-4.07.52,4.89,1.3,8.86,1.31,12.83.07,66,.22,132.08,0,198.12-.11,31.26-24.15,55.32-55.39,55.38q-155.57.27-311.14,0C62.15,498.13,38.16,474,38.06,442.7c-.21-65.86-.08-131.72,0-197.58C38.06,241.05,38.83,237,39.39,231.44Z"/><path class="cls-1" d="M63.92,198.44c8.81-5.27,17.75-8.18,27.48-8.22q42-.12,84-.08,113,0,226.06-.06c11.4,0,22,2.09,32.48,8.61-1.48,1.39-2.65,2.6-3.94,3.67q-85.23,71.31-170.5,142.58c-7.49,6.26-13.37,6.3-20.62.24L67.19,201.45C66.25,200.66,65.37,199.78,63.92,198.44Z"/><path class="cls-1" d="M124.12,141.84c-7.59-.09-13.52-3.44-17.33-9.9-9.63-16.33-19.21-32.7-28.42-49.27a20.1,20.1,0,0,1,7.78-27.42c9.74-5.62,21.77-2.93,27.67,6.91,9.85,16.41,19.55,32.94,28.66,49.76C150,125.82,139.83,141.89,124.12,141.84Z"/><path class="cls-1" d="M269.6,62.35c0,9.14.12,18.29,0,27.43-.19,11.34-8.34,19.92-19.29,20.6-10.65.66-20.76-7.39-21.14-18.61-.66-19.87-.68-39.81,0-59.68.4-11.25,10.35-19,21.26-18.39s19,9.21,19.15,20.68C269.72,43.7,269.6,53,269.6,62.35Z"/><path class="cls-1" d="M416.87,71.58c-1.32,3.46-2.22,7.15-4,10.35q-13.05,23.17-26.53,46.13c-6.44,11-18.31,14.49-28.49,8.62s-13.13-18-6.85-29c9-15.88,18.13-31.75,27.43-47.48a19.8,19.8,0,0,1,23.18-9.11C410.75,53.89,416.44,61.76,416.87,71.58Z"/></svg>