<svg xmlns="http://www.w3.org/2000/svg" xmlns:xlink="http://www.w3.org/1999/xlink" width="51" height="52.321" viewBox="0 0 51 52.321">
  <defs>
    <clipPath id="clip-path">
      <rect id="Rectangle_14004" data-name="Rectangle 14004" width="27" height="27" transform="translate(100.189 441.189)" fill="#fff"/>
    </clipPath>
  </defs>
  <g id="Group_40449" data-name="Group 40449" transform="translate(-86 -435)">
    <g id="Group_40450" data-name="Group 40450">
      <g id="Group_38742" data-name="Group 38742" transform="translate(0 -117)">
        <path id="Path_27968" data-name="Path 27968" d="M8,0H43a8,8,0,0,1,8,8V38a8,8,0,0,1-8,8H8a8,8,0,0,1-8-8V8A8,8,0,0,1,8,0Z" transform="translate(86 552)" fill="#5eacff"/>
        <path id="Path_27971" data-name="Path 27971" d="M5.9,2.194a1.918,1.918,0,0,1,3.2,0l3.5,5.019A2.166,2.166,0,0,1,11,10.655H4A2.166,2.166,0,0,1,2.4,7.213Z" transform="translate(119.004 605.655) rotate(180)" fill="#5eacff"/>
      </g>
      <g id="Mask_Group_38555" data-name="Mask Group 38555" transform="translate(-2.189 2.811)" clip-path="url(#clip-path)">
        <path id="online-learning" d="M28.655,10.27V5.4A1.831,1.831,0,0,0,26.83,3.578H17.1A1.831,1.831,0,0,0,15.271,5.4V7.228H4.928A1.831,1.831,0,0,0,3.1,9.053V21.221H1.886a.61.61,0,0,0-.608.608,3.661,3.661,0,0,0,3.65,3.65H25a3.661,3.661,0,0,0,3.65-3.65.61.61,0,0,0-.608-.608H26.83V12.1A1.831,1.831,0,0,0,28.655,10.27ZM4.32,9.053a.61.61,0,0,1,.608-.608H15.271V10.27A1.831,1.831,0,0,0,17.1,12.1h1.217V13.92a.575.575,0,0,0,.335.548.888.888,0,0,0,.274.061.652.652,0,0,0,.365-.122l2.89-2.312h3.437v9.126H14.662V18.787a4.252,4.252,0,0,0-2.373-3.8,2.736,2.736,0,1,0-4.624-1.977,2.812,2.812,0,0,0,.852,1.977,4.252,4.252,0,0,0-2.373,3.8v2.434H4.32ZM10.4,15.745a3.051,3.051,0,0,1,3.042,3.042v2.434H7.362V18.787A3.051,3.051,0,0,1,10.4,15.745ZM8.883,13.008A1.521,1.521,0,1,1,10.4,14.529,1.506,1.506,0,0,1,8.883,13.008Zm18.495,9.43A2.421,2.421,0,0,1,25,24.263H4.928a2.447,2.447,0,0,1-2.373-1.825H27.377ZM21.963,10.878A.485.485,0,0,0,21.6,11l-2.068,1.643V11.487a.61.61,0,0,0-.608-.608H17.1a.61.61,0,0,1-.608-.608V5.4a.61.61,0,0,1,.608-.608H26.83a.61.61,0,0,1,.608.608V10.27a.61.61,0,0,1-.608.608ZM19.529,7.836a.608.608,0,1,1-.608-.608A.61.61,0,0,1,19.529,7.836Zm3.042,0a.608.608,0,1,1-.608-.608A.61.61,0,0,1,22.571,7.836Zm3.042,0A.608.608,0,1,1,25,7.228.61.61,0,0,1,25.613,7.836Z" transform="translate(98.723 440.16)" fill="#fff"/>
      </g>
    </g>
  </g>
</svg>
