<svg id="g1977" xmlns="http://www.w3.org/2000/svg" width="13" height="13" viewBox="0 0 13 13">
  <path id="rect1963" d="M2.65,295.65a.652.652,0,0,0,0,1.3H3.3v7.17a2.612,2.612,0,0,0,2.6,2.607h5.2a2.612,2.612,0,0,0,2.6-2.607v-7.17h.65a.652.652,0,0,0,0-1.3Zm1.95,1.3h7.8v7.17a1.285,1.285,0,0,1-1.3,1.3H5.9a1.285,1.285,0,0,1-1.3-1.3Z" transform="translate(-2 -293.73)" fill="#ff7979"/>
  <path id="path1972" d="M9.64,292.65a.64.64,0,0,0,0,1.28H12.2a.64.64,0,0,0,0-1.28Z" transform="translate(-4.42 -292.65)" fill="#ff7979"/>
</svg>
