<svg xmlns="http://www.w3.org/2000/svg" width="31.592" height="38.612" viewBox="0 0 31.592 38.612">
  <g id="Group_378961" data-name="Group 378961" transform="translate(-200 -738)">
    <g id="Group_37894" data-name="Group 37894" transform="translate(17 534)">
      <g id="_9004737_file_document_paper_page_icon" data-name="9004737_file_document_paper_page_icon" transform="translate(183 204)">
        <path id="Path_27727" data-name="Path 27727" d="M29.327,39.612H8.265A5.265,5.265,0,0,1,3,34.347V6.265A5.265,5.265,0,0,1,8.265,1h9.378a7.021,7.021,0,0,1,4.965,2.057l9.927,9.927a7.02,7.02,0,0,1,2.057,4.965v16.4A5.265,5.265,0,0,1,29.327,39.612Z" transform="translate(-3 -1)" fill="#e8f3ff"/>
        <path id="Path_27730" data-name="Path 27730" d="M26.409,14.769H18.265A5.265,5.265,0,0,1,13,9.5V1.36a7.177,7.177,0,0,1,2.053,1.422l9.934,9.934a7.177,7.177,0,0,1,1.422,2.053Z" transform="translate(4.551 -0.728)" fill="#d3e8ff"/>
      </g>
    </g>
    <g id="_icons" transform="translate(204 747.975)">
      <g id="Group_37895" data-name="Group 37895" transform="translate(4 4.025)">
        <path id="Path_27737" data-name="Path 27737" d="M8.561,9.235l2.112-2.112V14.1a.918.918,0,0,0,1.836,0V7.123L14.62,9.235a.887.887,0,0,0,1.285,0,.887.887,0,0,0,0-1.285L12.233,4.277c-.092-.092-.184-.184-.275-.184a1.006,1.006,0,0,0-.734,0c-.092.092-.184.092-.275.184L7.275,7.95A.909.909,0,0,0,8.561,9.235Z" transform="translate(-4.246 -4.025)" fill="#3390f4"/>
        <path id="Path_27738" data-name="Path 27738" d="M17.771,13a.867.867,0,0,0-.918.918v1.836a1.842,1.842,0,0,1-1.836,1.836H7.672a1.842,1.842,0,0,1-1.836-1.836V13.918A.867.867,0,0,0,4.918,13,.867.867,0,0,0,4,13.918v1.836a3.683,3.683,0,0,0,3.672,3.672h7.344a3.683,3.683,0,0,0,3.672-3.672V13.918A.867.867,0,0,0,17.771,13Z" transform="translate(-4 -4.76)" fill="#3390f4"/>
      </g>
    </g>
  </g>
</svg>
